<?xml version="1.0" encoding="UTF-8"?>
<svg id="Layer_2" data-name="Layer 2" xmlns="http://www.w3.org/2000/svg" viewBox="0 0 527.62 262.77">
  <defs>
    <style>
      .cls-1 {
        fill: #fff;
      }
    </style>
  </defs>
  <g id="Layer_1-2" data-name="Layer 1">
    <g>
      <path class="cls-1" d="M240.61,90.31h-39.3c-1.97,0-2.95-2.38-1.56-3.77l44.46-44.46c0-16.43,0-25.64,0-42.07h0c-16.43,0-25.65,0-42.08,0l-77.68,77.68c-1.39,1.39-3.63,1.39-5.02,0L42.09.33c-16.43,0-25.65,0-42.08,0h0c0,16.43,0,25.64,0,42.07l44.13,44.13c1.39,1.39.41,3.77-1.56,3.77H3.55c-1.96,0-3.55,1.59-3.55,3.55v165.37c0,1.96,1.59,3.55,3.55,3.55h52.4c1.96,0,3.55-1.59,3.55-3.55V107.22c0-1.97,2.38-2.95,3.77-1.56l56.17,56.17c1.39,1.39,3.63,1.39,5.02,0l56.44-56.44c1.39-1.39,3.77-.41,3.77,1.56v152.26c0,1.96,1.59,3.55,3.55,3.55h52.4c1.96,0,3.55-1.59,3.55-3.55V93.85c0-1.96-1.59-3.55-3.55-3.55Z"/>
      <path class="cls-1" d="M524.01,172.46h-39.3c-1.97,0-2.95,2.38-1.56,3.77l44.46,44.46c0,16.43,0,25.64,0,42.07h0c-16.43,0-25.65,0-42.08,0l-77.68-77.68c-1.39-1.39-3.63-1.39-5.02,0l-77.35,77.35c-16.43,0-25.65,0-42.08,0h0c0-16.43,0-25.64,0-42.07l44.13-44.13c1.39-1.39.41-3.77-1.56-3.77h-39.04c-1.96,0-3.55-1.59-3.55-3.55V3.55c0-1.96,1.59-3.55,3.55-3.55h52.4c1.96,0,3.55,1.59,3.55,3.55v152c0,1.97,2.38,2.95,3.77,1.56l56.17-56.17c1.39-1.39,3.63-1.39,5.02,0l56.44,56.44c1.39,1.39,3.77.41,3.77-1.56V3.55c0-1.96,1.59-3.55,3.55-3.55h52.4c1.96,0,3.55,1.59,3.55,3.55v165.37c0,1.96-1.59,3.55-3.55,3.55Z"/>
    </g>
  </g>
</svg>